<svg width="15" height="11" viewBox="0 0 15 11" fill="none" xmlns="http://www.w3.org/2000/svg">
<circle cx="7.11445" cy="5.07222" r="2.27368" stroke="white" stroke-width="0.947368"/>
<mask id="path-2-outside-1_1567_2809" maskUnits="userSpaceOnUse" x="-0.841797" y="-0.927734" width="16" height="12" fill="black">
<rect fill="white" x="-0.841797" y="-0.927734" width="16" height="12"/>
<path d="M7.11328 1.07227C9.80494 1.07227 12.1086 2.72605 13.0684 5.07227C12.1086 7.41848 9.80494 9.07227 7.11328 9.07227C4.42163 9.07225 2.11796 7.41849 1.1582 5.07227C2.11796 2.72604 4.42163 1.07228 7.11328 1.07227Z"/>
</mask>
<path d="M7.11328 1.07227V1.43051e-05H7.11328L7.11328 1.07227ZM13.0684 5.07227L14.0608 5.47824L14.2269 5.07227L14.0608 4.66629L13.0684 5.07227ZM7.11328 9.07227L7.11328 10.1445H7.11328V9.07227ZM1.1582 5.07227L0.165776 4.6663L-0.000292659 5.07227L0.165776 5.47823L1.1582 5.07227ZM7.11328 1.07227V2.14452C9.35404 2.14452 11.2751 3.52048 12.0759 5.47824L13.0684 5.07227L14.0608 4.66629C12.9421 1.93162 10.2558 1.43051e-05 7.11328 1.43051e-05V1.07227ZM13.0684 5.07227L12.0759 4.66629C11.2751 6.62405 9.35404 8.00001 7.11328 8.00001V9.07227V10.1445C10.2558 10.1445 12.9421 8.21291 14.0608 5.47824L13.0684 5.07227ZM7.11328 9.07227L7.11329 8.00001C4.87252 8 2.95148 6.62405 2.15063 4.6663L1.1582 5.07227L0.165776 5.47823C1.28445 8.21292 3.97075 10.1445 7.11328 10.1445L7.11328 9.07227ZM1.1582 5.07227L2.15063 5.47823C2.95148 3.52048 4.87252 2.14453 7.11329 2.14452L7.11328 1.07227L7.11328 1.43051e-05C3.97075 3.12328e-05 1.28445 1.93161 0.165776 4.6663L1.1582 5.07227Z" fill="white" mask="url(#path-2-outside-1_1567_2809)"/>
</svg>
