<svg width="40" height="46" viewBox="0 0 40 46" fill="none" xmlns="http://www.w3.org/2000/svg">
<path fill-rule="evenodd" clip-rule="evenodd" d="M3.75137 0.345071C6.72121 -0.735617 10.004 0.807226 11.0668 3.78355L14.1723 12.4828L17.307 3.87144C18.7855 -0.190733 24.1112 -1.12298 26.8813 2.19566C28.1648 3.73361 28.5303 5.8405 27.8402 7.72105L26.5883 11.1302C26.7129 11.1057 26.839 11.0858 26.9662 11.0697C30.6926 10.5967 33.687 13.8047 33.2377 17.3177C34.1178 17.1443 35.055 17.2015 35.9594 17.5306L36.2025 17.6263C38.6844 18.6747 39.935 21.4977 39.0033 24.058L37.2113 28.9808C36.8947 29.8504 36.3648 30.58 35.7035 31.1351C35.1168 39.416 28.2097 46.0003 19.727 46.0003H18.5697C9.40928 46.0001 1.98303 38.5739 1.98281 29.4134V24.1751H2.0248C2.23612 22.3072 3.25041 20.6833 4.71523 19.6566L0.345117 7.64878C-0.731223 4.69156 0.794149 1.42141 3.75137 0.345071ZM8.38516 21.4105C6.45662 21.4105 4.89305 22.9742 4.89297 24.9027H4.89199V29.4134C4.89221 36.9667 11.0164 43.0899 18.5697 43.0902H19.727C26.1829 43.0902 31.5242 38.4299 32.6264 32.3265C31.9839 32.352 31.3256 32.2573 30.684 32.0238C29.6975 31.6647 28.8893 31.0323 28.3139 30.2435C25.9072 32.9058 21.3611 32.7659 19.2475 29.5589H12.4584C12.4585 30.5332 12.6544 31.4986 13.0346 32.3988C13.4148 33.2988 13.9718 34.1171 14.6742 34.806C15.3767 35.495 16.2115 36.0415 17.1293 36.4144C18.047 36.7872 19.0315 36.9788 20.0248 36.9789V39.889C18.657 39.889 17.3003 39.6253 16.0336 39.1107C14.7669 38.596 13.6123 37.8396 12.6371 36.8832C11.6618 35.9266 10.8849 34.7878 10.3539 33.5306C9.82289 32.2733 9.54831 30.9233 9.54824 29.5589L9.54922 26.6488H19.4428C20.889 26.6486 22.0617 25.4758 22.0619 24.0296C22.0618 22.5834 20.889 21.4107 19.4428 21.4105H8.38516ZM34.9643 20.265C33.8316 19.8528 32.5787 20.4371 32.1664 21.5697L30.3744 26.4925L30.31 26.7054C30.0567 27.7062 30.5437 28.753 31.473 29.2025L31.6791 29.2894C32.741 29.6758 33.9086 29.1867 34.39 28.1908L34.477 27.9857L36.268 23.0628C36.6802 21.9303 36.0968 20.6773 34.9643 20.265ZM30.2123 17.5355C30.8863 15.6419 29.3264 13.7024 27.3324 13.9554C26.3456 14.0808 25.5076 14.74 25.1527 15.6693L23.4242 20.1957C24.3816 21.1898 24.972 22.5406 24.9721 24.0296C24.972 25.9929 23.9471 27.7156 22.4047 28.6966C23.8481 29.702 26.0624 29.194 26.7357 27.3031L30.2123 17.5355ZM24.6469 4.06089C23.3145 2.46443 20.7526 2.91253 20.0414 4.86656L15.0795 18.5003H19.4428C19.8853 18.5004 20.3154 18.5535 20.7279 18.6517L25.1088 6.71812C25.4407 5.8136 25.2642 4.80063 24.6469 4.06089ZM8.32559 4.76206C7.80542 3.30597 6.19951 2.55077 4.74648 3.07945C3.2995 3.60611 2.55283 5.20668 3.07949 6.65367L7.41836 18.5716C7.73352 18.5239 8.05668 18.5003 8.38516 18.5003H11.9818L12.6117 16.7679L8.32559 4.76206Z" fill="#111111"/>
</svg>
